<svg width="53" height="53" viewBox="0 0 53 53" fill="none" xmlns="http://www.w3.org/2000/svg">
<path d="M42.896 0C43.2333 0.168633 43.5916 0.274029 43.8867 0.526978C44.7088 1.18043 45.0672 2.29763 44.7299 3.28834C44.3505 4.42662 43.423 5.14331 42.1372 5.14331C39.9028 5.16439 37.6684 5.14331 35.434 5.14331C33.4315 5.14331 31.4079 5.14331 29.4054 5.14331C28.9416 5.14331 28.773 5.29086 28.7941 5.7546C28.8362 6.85072 28.6887 6.72424 29.7426 6.72424C30.5226 6.72424 30.5225 6.72424 30.5225 7.48309C30.5225 9.591 30.5015 11.72 30.5225 13.8279C30.5225 14.3127 30.3539 14.4814 29.8691 14.4814C28.7941 14.4603 28.7941 14.4814 28.7941 15.5353C28.7941 16.0623 28.8362 16.5893 28.7941 17.1163C28.7519 17.6011 28.9627 17.7275 29.4054 17.7275C31.2182 17.7065 33.0099 17.7275 34.8227 17.7275C35.5394 17.7275 35.5394 17.7275 35.5394 18.4232C35.5394 19.709 35.5183 21.0159 35.5394 22.3017C35.5394 22.7233 35.4129 22.8919 34.9703 22.8919C29.1313 22.8709 23.2713 22.8709 17.4324 22.8919C16.9897 22.8919 16.8422 22.7444 16.8422 22.3017C16.8633 20.9527 16.8633 19.6036 16.8422 18.2545C16.8422 17.8329 16.9898 17.6854 17.4113 17.6854C19.2663 17.7065 21.1213 17.6854 22.9762 17.7065C23.461 17.7065 23.6297 17.5589 23.6086 17.053C23.5664 16.3574 23.5875 15.6618 23.6086 14.9662C23.6297 14.5868 23.5032 14.4603 23.1027 14.4603C21.7958 14.4814 21.8801 14.65 21.8801 13.2166C21.8801 11.2984 21.8801 9.40129 21.8801 7.48309C21.8801 6.74532 21.8801 6.74532 22.6179 6.72424C23.714 6.72424 23.5875 6.89288 23.6086 5.7546C23.6297 5.26978 23.461 5.14331 22.9973 5.14331C18.8026 5.16439 14.6078 5.14331 10.4131 5.14331C9.31696 5.14331 8.41053 4.76388 7.86248 3.75208C7.16687 2.44518 7.67277 0.885324 9.00076 0.231871C9.16939 0.147554 9.33803 0.0843165 9.50666 0C20.6786 0 31.7873 0 42.896 0ZM26.2224 3.3305C31.429 3.3305 36.6144 3.3305 41.821 3.3305C42.0528 3.3305 42.3058 3.3305 42.5166 3.24619C42.8749 3.09863 43.0857 2.8246 43.0436 2.46626C43.0014 2.08683 42.7695 1.81281 42.348 1.77065C42.1372 1.74957 41.9474 1.74957 41.7367 1.74957C32.7569 1.74957 23.7772 1.74957 14.7975 1.74957C13.2798 1.74957 11.7621 1.74957 10.2444 1.74957C9.73853 1.74957 9.42234 2.0236 9.42234 2.46626C9.40126 2.93 9.6753 3.18295 10.118 3.26727C10.3077 3.30942 10.5185 3.30942 10.7293 3.30942C15.8936 3.3305 21.058 3.3305 26.2224 3.3305ZM26.2013 21.037C28.5411 21.037 30.8598 21.0159 33.1996 21.037C33.6633 21.037 33.832 20.8894 33.7687 20.4468C33.7477 20.3414 33.7687 20.236 33.7687 20.1306C33.7687 19.435 33.7687 19.435 33.052 19.435C28.5833 19.435 24.1356 19.435 19.6668 19.435C18.5496 19.435 18.7393 19.3296 18.6761 20.4257C18.655 20.9105 18.8447 21.0159 19.2874 21.0159C21.6061 21.037 23.9037 21.037 26.2013 21.037ZM26.2646 8.51597C25.6111 8.51597 24.9366 8.51597 24.2831 8.51597C23.9459 8.51597 23.7772 8.60028 23.7772 8.97971C23.7772 10.0126 23.7772 11.0455 23.7772 12.0994C23.7772 12.4788 23.9459 12.5842 24.3042 12.6053C25.59 12.6686 26.8969 12.6686 28.1828 12.6053C28.5622 12.5842 28.7097 12.4367 28.6887 12.0783C28.6676 11.0665 28.6676 10.0337 28.6887 9.02187C28.6887 8.64244 28.52 8.51597 28.1617 8.53705C27.5293 8.53705 26.8969 8.51597 26.2646 8.51597ZM27.0234 16.0201C27.0023 16.0201 27.0023 16.0201 27.0234 16.0201C27.0234 15.8515 27.0234 15.6829 27.0234 15.5142C27.0023 14.3549 27.2342 14.4603 25.9062 14.4392C25.5479 14.4392 25.4214 14.5868 25.4425 14.924C25.4636 15.4721 25.4425 16.0201 25.4425 16.5682C25.4425 17.7908 25.4636 17.7908 26.6651 17.6854C26.918 17.6643 27.0234 17.5589 27.0234 17.306C27.0023 16.8633 27.0234 16.4417 27.0234 16.0201ZM27.0234 5.96539C27.0234 5.14331 27.0234 5.14331 26.4121 5.14331C25.4636 5.14331 25.4636 5.14331 25.4636 5.73352C25.4636 6.70316 25.4636 6.70316 26.0749 6.72424C27.0023 6.72424 27.0023 6.72424 27.0234 5.96539Z" fill="#627084"/>
<path d="M0 39.692C0 35.7081 0 31.7241 0 27.7191C0 26.9813 5.12617e-06 26.9813 0.716696 26.9813C3.11972 26.9813 5.52273 27.0024 7.92575 26.9813C8.43165 26.9813 8.55812 27.171 8.55812 27.6348C8.53704 29.1946 8.55813 30.7755 8.53705 32.3354C8.53705 32.7991 8.68459 32.9256 9.12725 32.9256C11.2773 32.9045 13.4274 32.9256 15.5775 32.9045C17.2638 32.8835 18.8026 32.4197 20.1938 31.4712C20.9526 30.9653 21.311 29.9745 21.0791 29.026C20.9948 28.7309 20.784 28.773 20.5943 28.773C19.5403 28.773 18.4864 28.7519 17.4324 28.773C17.053 28.773 16.8844 28.6466 16.8844 28.246C16.9055 26.8759 16.9055 25.4847 16.8844 24.0935C16.8844 23.6719 17.053 23.5665 17.4324 23.5665C23.2924 23.5665 29.1524 23.5665 35.0335 23.5665C35.4129 23.5665 35.5816 23.6719 35.5816 24.0935C35.5605 25.4636 35.5605 26.8548 35.5816 28.246C35.5816 28.6466 35.434 28.773 35.0335 28.773C34.0006 28.7519 32.9467 28.7941 31.9138 28.773C31.4922 28.773 31.3868 28.9206 31.3657 29.3422C31.2814 30.4594 31.703 31.2182 32.6937 31.7663C34.0006 32.483 35.3919 32.9045 36.8885 32.9045C39.0386 32.9256 41.1886 32.9045 43.3387 32.9256C43.7814 32.9256 43.9289 32.7991 43.9289 32.3565C43.9078 30.7966 43.9289 29.2157 43.9078 27.6558C43.9078 27.1921 44.0132 26.9813 44.5402 27.0024C46.9643 27.0235 49.3884 27.0235 51.8125 27.0024C52.2973 27.0024 52.487 27.1289 52.487 27.6558C52.466 35.7081 52.466 43.7392 52.487 51.7914C52.487 52.3184 52.3395 52.466 51.8125 52.466C49.3673 52.4449 46.9432 52.4449 44.498 52.466C44.0554 52.466 43.9078 52.3184 43.9078 51.8758C43.9289 50.3159 43.9078 48.7771 43.9289 47.2173C43.9289 46.7324 43.7813 46.5638 43.2754 46.5638C40.9146 46.5849 38.5326 46.5849 36.1718 46.606C34.9914 46.6271 33.8952 47.0065 32.8834 47.5967C31.8716 48.1869 30.9231 48.9036 29.8059 49.283C26.5386 50.4002 23.4611 50.063 20.5732 48.1869C19.6036 47.5545 18.6129 47.0065 17.4957 46.7535C16.9055 46.606 16.3152 46.606 15.725 46.5849C13.5539 46.5638 11.4038 46.5849 9.23264 46.5638C8.74782 46.5638 8.5792 46.7114 8.5792 47.2173C8.60028 48.756 8.57919 50.2948 8.60027 51.8125C8.60027 52.2973 8.45272 52.466 7.9679 52.4449C5.5438 52.4238 3.1197 52.4238 0.695596 52.4449C0.189697 52.4449 0.021074 52.2973 0.021074 51.7914C0.021074 47.7442 0 43.7181 0 39.692ZM43.9078 39.7342C43.9078 38.343 43.9078 36.9307 43.9078 35.5394C43.9078 34.6963 43.9078 34.6963 43.0858 34.6963C41.0832 34.6963 39.1018 34.6963 37.0993 34.6963C35.7713 34.7173 34.4855 34.4855 33.2418 34.0007C32.3775 33.6634 31.5554 33.2418 30.8388 32.6516C29.7848 31.7873 29.4686 30.6069 29.5529 29.3C29.574 28.8784 29.4265 28.7309 29.0049 28.7519C27.2764 28.773 25.569 28.7519 23.8405 28.7519C22.7233 28.7519 22.8709 28.6255 22.8709 29.7427C22.8498 31.1128 22.3228 32.2089 21.1635 32.9678C19.456 34.085 17.6222 34.6752 15.5775 34.6752C13.4485 34.6752 11.3195 34.6752 9.1905 34.6541C8.70568 34.6541 8.53705 34.7806 8.53705 35.2865C8.55813 38.1954 8.55813 41.1254 8.53705 44.0343C8.53705 44.5402 8.70568 44.6667 9.1905 44.6667C11.2773 44.6456 13.3853 44.6667 15.4721 44.6667C17.6011 44.6667 19.5614 45.2569 21.3321 46.4795C24.3675 48.5874 28.0142 48.6085 31.0495 46.5217C32.9045 45.2358 34.9281 44.6456 37.1414 44.6667C39.2072 44.6667 41.2729 44.6456 43.3387 44.6667C43.7603 44.6667 43.9078 44.5402 43.9078 44.0976C43.8867 42.6642 43.9078 41.2097 43.9078 39.7342ZM6.74532 39.7342C6.74532 36.2983 6.74532 32.8413 6.7664 29.4054C6.7664 28.8995 6.61884 28.773 6.13402 28.773C4.86927 28.7941 3.60453 28.7941 2.33978 28.773C1.89712 28.773 1.77065 28.9206 1.79173 29.3422C1.81281 30.4594 1.81281 31.5555 1.79173 32.6727C1.79173 38.4483 1.79173 44.224 1.77065 49.9997C1.77065 50.5056 1.93928 50.6532 2.4241 50.6321C3.64669 50.611 4.86928 50.5899 6.11295 50.6321C6.63993 50.6532 6.7664 50.4635 6.7664 49.9576C6.74532 46.5427 6.74532 43.1279 6.74532 39.7342ZM45.6995 39.6288C45.6995 43.0647 45.7206 46.5217 45.6785 49.9576C45.6785 50.4845 45.8471 50.6321 46.353 50.611C47.5756 50.5689 48.7982 50.5689 50.0419 50.611C50.5478 50.6321 50.6742 50.4424 50.6742 49.9576C50.6532 47.6178 50.6531 45.278 50.6531 42.9593C50.6531 38.4273 50.6532 33.8953 50.6742 29.3632C50.6742 28.8784 50.5056 28.7519 50.0629 28.773C48.8193 28.7941 47.5756 28.8152 46.3319 28.773C45.826 28.7519 45.6995 28.9417 45.6995 29.4265C45.6995 32.8202 45.6995 36.235 45.6995 39.6288ZM26.2857 25.4004C23.9248 25.4004 21.585 25.4004 19.2242 25.4004C18.8026 25.4004 18.6339 25.5479 18.6761 25.9484C18.6761 25.9906 18.6761 26.0538 18.6761 26.096C18.6761 26.9602 18.6761 26.9602 19.5193 26.9602C23.9459 26.9602 28.3725 26.9602 32.7991 26.9602C33.832 26.9602 33.7266 27.0867 33.7688 25.9906C33.7898 25.5268 33.6634 25.3793 33.1786 25.3793C30.8809 25.4214 28.5833 25.4004 26.2857 25.4004Z" fill="#627084"/>
<path d="M24.1354 37.9424C25.7585 37.9424 27.3816 37.9635 28.9836 37.9424C29.4684 37.9424 29.637 38.09 29.637 38.5748C29.6159 39.7342 29.637 39.692 28.4987 39.7552C26.5384 39.8606 24.578 39.6709 22.6177 39.7974C21.3951 39.8817 20.1725 39.6709 18.9499 39.7763C18.6759 39.7974 18.5494 39.6498 18.5283 39.3758C18.5283 39.3337 18.5283 39.2704 18.5283 39.2283C18.5494 37.816 18.4018 37.9635 19.772 37.9424C21.2475 37.9213 22.6809 37.9424 24.1354 37.9424Z" fill="#E58707"/>
<path d="M33.0099 38.8488C32.9888 39.8606 33.1574 39.7341 31.8295 39.7341C31.1971 39.7341 31.1971 39.7341 31.2182 38.6802C31.2182 37.9213 31.2182 37.9213 32.3564 37.9424C33.031 37.9424 33.031 37.9424 33.0099 38.8488Z" fill="#E58707"/>
</svg>
