<svg width="53" height="55" viewBox="0 0 53 55" fill="none" xmlns="http://www.w3.org/2000/svg">
<path d="M29.2339 12.8583H27.3368V8.76892C27.3368 8.47381 27.4632 8.22086 27.6951 8.03115C27.927 7.84144 28.201 7.7782 28.4961 7.84144L35.3468 9.2959C36.3797 9.50669 37.3704 9.50669 38.2979 9.27482C40.6798 8.70568 40.4058 7.39878 40.3004 6.82964C40.1318 6.04971 39.7734 5.50165 39.2254 5.14331C37.8974 4.32122 35.8527 4.80604 35.8527 4.80604C35.8316 4.80604 35.7895 4.82712 35.7684 4.82712L29.0863 5.88108C28.8123 5.92324 28.5383 5.83892 28.3275 5.67029C28.1167 5.48057 27.9902 5.22762 27.9902 4.9536V1.89712H24.4068V4.9536C24.4068 5.29086 24.2592 5.62813 23.9641 5.79676C23.669 5.96539 23.3528 5.98647 23.0577 5.81784C22.9101 5.7546 21.7086 5.33302 17.008 4.53201C14.7947 4.15259 13.1927 4.72173 12.2652 6.19726C11.8225 6.89288 11.9279 7.7782 12.497 8.30518C12.8765 8.66352 13.4034 8.95863 14.078 9.1905C15.5957 9.71748 17.3031 9.6964 18.9051 9.10618L23.142 7.56741C23.4371 7.46201 23.7533 7.50417 24.0063 7.6728C24.2592 7.84144 24.4068 8.13654 24.4068 8.45273V12.8583H22.5096V9.82288L19.5375 10.8979C17.535 11.6146 15.3638 11.6568 13.4456 10.9822C12.5181 10.666 11.7593 10.2234 11.1901 9.6964C9.96755 8.55813 9.73568 6.66101 10.6421 5.20655C11.3799 3.96288 13.277 1.98144 17.2609 2.65597C19.8958 3.09863 21.4978 3.4359 22.4675 3.68885V0.948561C22.4675 0.421583 22.8891 0 23.416 0H28.8966C29.4236 0 29.8452 0.421583 29.8452 0.948561V3.85748L35.4101 2.97216C35.7895 2.88784 38.2979 2.36086 40.195 3.54129C41.2068 4.17367 41.8603 5.14331 42.1343 6.45021C42.6402 8.79 41.3965 10.4974 38.7195 11.1298C37.518 11.4249 36.2321 11.4249 34.9252 11.1509L29.2128 9.94935V12.8583H29.2339Z" fill="#627084"/>
<path d="M51.5358 44.224H37.5392C37.0123 44.224 36.5907 43.8024 36.5907 43.2755V36.7409C36.5907 36.2561 36.9701 35.8345 37.4549 35.7924L38.6564 35.687C38.8672 34.9281 39.1202 33.4526 38.5089 32.2089C37.9608 31.0707 35.7897 31.1339 34.7568 31.2814L31.9743 34.0639C31.8057 34.2325 31.5528 34.3379 31.2998 34.3379H21.8774C21.6245 34.3379 21.3926 34.2325 21.2029 34.0639L18.294 31.155H6.38428V29.2578H18.6945C18.9474 29.2578 19.1793 29.3632 19.369 29.5319L22.2779 32.4408H30.9204L33.6396 29.7216C33.7661 29.5951 33.9347 29.4897 34.1244 29.4686C34.3141 29.4265 38.8461 28.5622 40.2163 31.3868C41.4599 33.9374 40.2795 36.8253 40.2374 36.9517C40.1109 37.289 39.7947 37.4998 39.4364 37.5419L38.4878 37.6263V42.348H50.5872V37.7106H49.7019C49.4489 37.7106 49.196 37.6052 49.0274 37.4366C48.8587 37.2468 48.7533 37.015 48.7533 36.762C48.7533 36.6566 48.8376 26.7705 44.0527 23.9037C39.0359 20.8894 33.0915 21.1424 33.0283 21.1424C32.6278 21.1635 32.2484 20.9316 32.1008 20.5522L30.5199 16.7368H21.498L20.0436 20.6786C19.9171 21.0581 19.5587 21.311 19.1582 21.311H6.38428V19.4139H18.4837L19.9382 15.4721C20.0646 15.0927 20.423 14.8397 20.8235 14.8397H31.1523C31.5317 14.8397 31.89 15.0716 32.0376 15.4299L33.6185 19.2453C35.4313 19.2663 40.5114 19.5614 45.0223 22.2807C49.8073 25.1474 50.524 33.0521 50.6294 35.8345H51.5147C52.0417 35.8345 52.4633 36.2561 52.4633 36.7831V43.3176C52.4843 43.8024 52.0628 44.224 51.5358 44.224Z" fill="#627084"/>
<path d="M6.38425 36.9517C6.36317 36.9517 6.34209 36.9517 6.32101 36.9517C1.34634 36.5934 0.186986 32.2089 0.271303 29.8902C0.208065 29.1735 -0.318913 23.4822 0.292382 19.983C1.05123 15.5142 4.14986 12.9637 8.17598 13.4485C12.5394 13.9755 13.4879 16.9476 13.5301 17.0741L11.7173 17.6222L12.6237 17.3481L11.7173 17.6432C11.6962 17.5589 11.0217 15.725 7.94411 15.3456C4.38173 14.903 2.61109 17.6222 2.14735 20.3203C1.57821 23.7351 2.14735 29.7216 2.14735 29.7848C2.14735 29.827 2.14735 29.8691 2.14735 29.9324C2.14735 29.9324 2.10519 31.2182 2.65324 32.504C3.32778 34.0639 4.57145 34.9281 6.40533 35.0757L9.77799 34.9492C10.5579 34.9281 11.2325 34.4644 11.5065 33.7899C11.633 33.4947 11.6751 33.1575 11.654 32.8202L13.5512 32.6937C13.5933 33.3472 13.4879 33.9585 13.256 34.5276C12.6869 35.8767 11.3378 36.8042 9.84123 36.8463L6.40533 36.9728C6.40533 36.9517 6.40533 36.9517 6.38425 36.9517Z" fill="#627084"/>
<path d="M42.2399 49.0511C43.0082 49.0511 43.6311 48.4283 43.6311 47.6599C43.6311 46.8916 43.0082 46.2687 42.2399 46.2687C41.4715 46.2687 40.8486 46.8916 40.8486 47.6599C40.8486 48.4283 41.4715 49.0511 42.2399 49.0511Z" fill="#E58707"/>
<path d="M47.8258 49.0511C48.5941 49.0511 49.217 48.4283 49.217 47.6599C49.217 46.8916 48.5941 46.2687 47.8258 46.2687C47.0574 46.2687 46.4346 46.8916 46.4346 47.6599C46.4346 48.4283 47.0574 49.0511 47.8258 49.0511Z" fill="#E58707"/>
<path d="M45.0433 54.5317C45.8117 54.5317 46.4345 53.9088 46.4345 53.1405C46.4345 52.3721 45.8117 51.7493 45.0433 51.7493C44.275 51.7493 43.6521 52.3721 43.6521 53.1405C43.6521 53.9088 44.275 54.5317 45.0433 54.5317Z" fill="#E58707"/>
</svg>
