<svg width="58" height="55" viewBox="0 0 58 55" fill="none" xmlns="http://www.w3.org/2000/svg">
<path d="M27.171 17.1584L25.5057 16.9476C25.6322 15.8937 26.6018 13.9122 29.4054 13.9122C31.3868 13.9122 31.703 11.9729 31.7241 11.7622C31.7241 11.7622 31.8084 10.8558 31.2393 10.2023C30.8598 9.75964 30.2275 9.50669 29.3632 9.46453C25.9273 9.2959 25.1685 6.11295 25.2317 4.46878L25.2739 3.66777H27.171V1.68633H17.3692V3.68885H19.3928V17.0741H17.7065V5.37518H15.6829V0H28.8573V5.37518H26.9813C27.1288 6.32374 27.6558 7.71496 29.4475 7.79928C30.7966 7.86252 31.8506 8.32626 32.5462 9.14834C33.558 10.3499 33.4315 11.8254 33.4104 11.994C33.2629 13.2588 32.23 15.6407 29.4265 15.6407C27.4872 15.6196 27.2131 16.9055 27.171 17.1584Z" fill="#627084"/>
<path d="M55.3116 29.0681L37.7527 19.0555L36.9517 20.2992L32.4829 17.6011L33.3472 16.1677L36.4247 18.0227L37.2046 16.8001L54.6792 26.7705L55.2484 25.8009L37.6262 15.978L38.4905 14.4814L35.2232 12.7107L36.0453 11.2352L40.8302 13.849L39.9449 15.3456L57.5671 25.1474L55.3116 29.0681Z" fill="#627084"/>
<path d="M28.499 41.294H16.2099V36.4458C15.5775 35.8767 14.2073 34.5276 13.7436 33.1364H11.4881C11.2563 33.2418 10.5817 33.6423 10.4553 35.0335H10.8979C11.1719 35.0124 12.3945 34.9703 13.1955 35.6659C13.596 36.0242 13.8279 36.488 13.8701 37.0571V37.1203V39.7131H0V37.0993L0.0421608 36.9939C0.29511 36.1085 1.20151 34.5487 2.84568 34.8016H3.05647C3.07755 33.2629 3.45698 30.1853 5.83892 28.246C8.36842 26.1803 12.4578 25.9273 14.0387 25.9062C14.3549 25.0631 15.0294 23.5875 16.1466 22.7444L16.252 18.2334H28.6044V22.8076C29.4686 23.6086 31.7241 26.0538 31.4922 29.6373C31.2604 33.1575 29.2578 35.6237 28.5201 36.4037V41.294H28.499ZM17.8962 39.6077H26.8127V35.708L27.0867 35.4551C27.1078 35.434 29.574 33.0732 29.8059 29.5319C30.0378 26.0749 27.2553 23.8827 27.2342 23.8616L26.9181 23.6086V19.9198H17.8962L17.8119 23.6929L17.3903 23.9248C16.3574 24.4939 15.6407 26.3278 15.451 26.9813L15.2613 27.6137L14.6078 27.5926C14.5657 27.5926 9.52777 27.4239 6.91396 29.5529C4.40554 31.6187 4.76389 35.5183 4.76389 35.5605L4.8482 36.488H2.69813L2.61382 36.4669C2.10792 36.3615 1.79173 37.0993 1.68633 37.3522V38.0267H12.1837V37.1414C12.1627 37.036 12.1416 36.9728 12.0994 36.9517C11.8676 36.7409 11.2773 36.6988 11.0033 36.7198H10.9401H8.83216L8.79 35.9188C8.57921 32.1035 11.0876 31.4711 11.193 31.4501L11.2773 31.429H15.2191L15.2613 32.23C15.3035 33.1996 16.8422 34.7806 17.58 35.3919L17.8751 35.6448V39.6077H17.8962Z" fill="#627084"/>
<path d="M32.5041 54.1101H12.2681L12.1627 53.3934C12.1417 53.3091 12.0784 52.8454 12.1627 51.6439C12.247 50.2948 13.575 49.6835 14.7765 49.6835H17.6855V42.0529H19.3718V51.3698H14.7765C14.5236 51.3698 13.8491 51.4752 13.8491 51.7282C13.828 52.0022 13.828 52.213 13.828 52.4027H30.8178V51.7071C30.7756 51.4752 30.6281 51.2012 30.2065 51.2012H25.295V42.0739H26.9814V49.5149H30.2065C31.7242 49.5149 32.3987 50.7375 32.483 51.5595V51.6439V54.1101H32.5041Z" fill="#627084"/>
<path d="M28.7309 12.795C29.3712 12.795 29.8902 12.276 29.8902 11.6357C29.8902 10.9954 29.3712 10.4763 28.7309 10.4763C28.0906 10.4763 27.5715 10.9954 27.5715 11.6357C27.5715 12.276 28.0906 12.795 28.7309 12.795Z" fill="#E58707"/>
</svg>
