<svg width="29" height="38" viewBox="0 0 29 38" fill="none" xmlns="http://www.w3.org/2000/svg">
<path d="M26.8285 38C18.2762 38 9.73002 38 1.17771 38C0.221978 37.6419 0 36.9256 0 35.9786C0.0184981 26.1083 0.0123321 16.2319 0.0123321 6.36166C0.0123321 4.78339 0.0123321 3.20511 0.0123321 1.62684C0.0123321 1.17157 0.110989 0.752716 0.462453 0.443131C0.672099 0.261022 0.937239 0.145687 1.17771 0C7.46708 0 13.7564 0 20.0458 0C20.1753 0.109265 20.3233 0.20639 20.4343 0.333866C21.5812 1.6147 22.7219 2.89553 23.8626 4.18243C25.0773 5.54824 26.2859 6.9262 27.5191 8.27987C27.852 8.64409 28.0062 9.01438 28.0062 9.5C27.9939 18.4051 27.9938 27.3163 27.9938 36.2214C27.9938 36.4096 27.9815 36.6038 27.9569 36.792C27.8952 37.2048 27.667 37.5204 27.3094 37.739C27.1553 37.8361 26.9888 37.915 26.8285 38ZM19.0592 1.48722C18.9174 1.48722 18.7941 1.48722 18.677 1.48722C13.0782 1.48722 7.47325 1.48722 1.87448 1.48115C1.57851 1.48115 1.49835 1.56006 1.49835 1.85144C1.50452 9.54856 1.50452 17.2518 1.50452 24.9489C1.50452 25.0581 1.50452 25.1674 1.50452 25.2827C9.85951 25.2827 18.1713 25.2827 26.5078 25.2827C26.5078 25.1553 26.5078 25.0581 26.5078 24.955C26.5078 20.038 26.5078 15.1211 26.514 10.2042C26.514 9.90671 26.4277 9.8278 26.1317 9.83387C24.0969 9.84601 22.0621 9.83994 20.0273 9.83994C19.3059 9.83994 19.0592 9.59713 19.0592 8.89904C19.0592 6.56198 19.0592 4.22492 19.0592 1.88786C19.0592 1.76645 19.0592 1.65112 19.0592 1.48722ZM12.813 27.0249C12.2643 27.0674 11.475 27.1342 10.6919 27.1888C10.4884 27.201 10.4021 27.2677 10.4083 27.4802C10.4145 30.2725 10.4145 33.0588 10.4083 35.8511C10.4083 36.0332 10.4576 36.1182 10.6611 36.1364C12.1471 36.2821 13.6331 36.3489 15.1006 35.9847C16.5065 35.6326 17.5979 34.8799 18.1467 33.5019C18.5721 32.4518 18.64 31.3652 18.4118 30.2604C18.159 29.0463 17.4499 28.1661 16.3277 27.6077C15.2918 27.0978 14.1757 27.0553 12.813 27.0249ZM4.56287 33.0224C5.29663 32.9435 5.98723 32.907 6.65316 32.7796C7.90487 32.5428 8.74962 31.8265 9.00859 30.5639C9.21207 29.5927 9.03942 28.7003 8.30566 27.9597C7.81238 27.462 7.19578 27.2374 6.52984 27.1342C5.24114 26.9399 3.94627 27.0431 2.66373 27.207C2.59591 27.2192 2.49108 27.3891 2.49108 27.4863C2.48492 30.2786 2.48492 33.0709 2.47875 35.8633C2.47875 36.1182 2.57124 36.1728 2.79939 36.1668C3.18785 36.1546 3.58247 36.1668 3.97093 36.1607C4.64303 36.1546 4.55054 36.2518 4.55054 35.578C4.56287 34.716 4.56287 33.8479 4.56287 33.0224ZM25.5151 28.7853C25.5151 28.2936 25.5028 27.8323 25.5213 27.3709C25.5274 27.1524 25.4411 27.0978 25.2315 27.0978C23.5481 27.1038 21.8648 27.1038 20.1753 27.0978C19.941 27.0978 19.8793 27.1767 19.8793 27.3952C19.8855 30.224 19.8855 33.0588 19.8793 35.8875C19.8793 36.1243 19.9657 36.1789 20.1876 36.1789C20.6933 36.1668 21.1927 36.1668 21.6983 36.1789C21.9326 36.185 21.9943 36.1 21.9943 35.8815C21.982 34.892 21.9881 33.8965 21.9881 32.907C21.9881 32.7917 21.9881 32.6764 21.9881 32.5367C22.1484 32.5367 22.2594 32.5367 22.3766 32.5367C23.2398 32.5367 24.1031 32.5246 24.9663 32.5428C25.2315 32.5489 25.3055 32.4578 25.2931 32.215C25.2746 31.8629 25.2746 31.5048 25.2931 31.1527C25.3055 30.916 25.2253 30.8371 24.9787 30.8371C24.1647 30.8492 23.357 30.8431 22.5431 30.8431C22.3704 30.8431 22.1978 30.8431 22.0128 30.8431C22.0128 30.145 22.0128 29.4834 22.0128 28.7853C23.1782 28.7853 24.3251 28.7853 25.5151 28.7853Z" fill="#E58707"/>
<path d="M10.2787 8.65638C10.2602 8.91133 10.2232 9.29376 10.2109 9.67619C10.2047 9.77331 10.2602 9.89472 10.3342 9.96149C11.7524 11.2059 13.1583 12.4564 14.6011 13.6704C15.4644 14.3989 16.3708 15.0787 17.271 15.7708C17.4129 15.874 17.6163 15.9407 17.7951 15.9468C19.1517 15.9832 20.5082 15.9711 21.8586 16.0379C22.6355 16.0743 23.3754 16.3049 23.9427 16.8877C24.4853 17.4462 24.6086 18.2535 24.2572 18.9941C23.8872 19.7711 23.2521 20.1414 22.4258 20.111C21.6428 20.0867 21.02 19.7225 20.4034 19.3037C19.3737 18.5995 18.3501 17.8954 17.3204 17.2033C17.2032 17.1244 17.0367 17.0819 16.8949 17.088C15.2116 17.1912 13.5406 17.3672 11.8942 17.7315C10.5685 18.0289 9.27984 18.4174 8.0528 19.0002C7.97264 19.0366 7.91715 19.158 7.88015 19.249C7.58418 20.0139 7.35604 20.803 6.99841 21.5375C6.61611 22.3267 6.00567 22.9216 5.0931 23.1219C4.17436 23.3283 3.48993 22.6787 3.55159 21.7561C3.61941 20.8091 4.19902 20.2081 4.88345 19.68C5.46306 19.2369 6.07967 18.8363 6.69627 18.4356C6.88742 18.3142 6.98607 18.1807 7.04157 17.9743C7.57185 15.8133 8.10829 13.6583 8.64474 11.5033C8.73106 11.1513 8.79889 10.7931 8.90371 10.441C8.95921 10.2529 8.90371 10.1436 8.77423 10.0161C8.12063 9.40302 7.49169 8.76564 7.06007 7.97044C6.75176 7.4059 6.61611 6.81708 6.85659 6.19184C7.0724 5.62123 7.85549 5.11133 8.51525 5.11133C9.17502 5.11133 9.75463 5.53625 9.9951 6.19791C10.2602 6.9567 10.3281 7.73369 10.2787 8.65638ZM8.28094 17.6768C10.6795 16.7056 13.1521 16.3171 15.6802 16.0561C13.7317 14.411 11.8264 12.8024 9.90261 11.1755C9.36617 13.3244 8.82972 15.4612 8.28094 17.6768ZM19.1578 17.088C19.1393 17.1062 19.127 17.1184 19.1085 17.1366C19.1517 17.1609 19.201 17.1851 19.238 17.2094C19.9656 17.6829 20.687 18.1685 21.4208 18.6299C21.6613 18.7816 21.9264 18.903 22.1977 18.9759C22.6478 19.0912 22.9623 18.9698 23.1473 18.6724C23.4802 18.1442 23.3076 17.5615 22.7033 17.3794C22.2224 17.2337 21.7106 17.1366 21.205 17.1002C20.5267 17.0516 19.8423 17.088 19.1578 17.088ZM9.07636 8.80814C9.23668 8.28002 9.15652 7.20558 8.94688 6.64104C8.82355 6.30111 8.66324 6.19184 8.39193 6.25254C8.02197 6.33146 7.79999 6.58641 7.88015 6.9142C7.94798 7.19344 8.0528 7.47874 8.21312 7.71548C8.45976 8.08577 8.76189 8.41357 9.07636 8.80814ZM4.72314 22.0171C5.4384 22.1446 6.35714 20.712 6.4373 19.935C5.51856 20.5056 4.42717 21.3797 4.72314 22.0171Z" fill="#E58707"/>
<path d="M12.5356 34.6008C12.5294 34.4794 12.5233 34.3883 12.5233 34.3033C12.5233 32.5369 12.5294 30.7644 12.5171 28.9979C12.5171 28.7308 12.5911 28.6458 12.8562 28.6458C13.479 28.6398 14.1018 28.6034 14.706 28.834C15.6186 29.18 16.0996 29.872 16.2599 30.7826C16.3955 31.5292 16.3277 32.2759 16.0441 32.9861C15.6494 33.9816 14.854 34.4733 13.812 34.6008C13.405 34.6433 12.9857 34.6008 12.5356 34.6008Z" fill="#E58707"/>
<path d="M4.58752 28.6459C5.04998 28.6459 5.48777 28.6095 5.92556 28.6519C6.499 28.7066 6.8813 29.0829 6.99229 29.5928C7.12177 30.1938 6.88746 30.7887 6.41884 31.0801C5.95022 31.3715 5.21646 31.4625 4.59369 31.3047C4.58752 30.4306 4.58752 29.5504 4.58752 28.6459Z" fill="#E58707"/>
</svg>
