<svg width="68" height="42" viewBox="0 0 68 42" fill="none" xmlns="http://www.w3.org/2000/svg">
<path d="M33.6296 41.0891C25.092 41.0891 16.5708 41.0891 8.0331 41.0891C5.44042 41.0891 4.30095 39.9662 4.30095 37.3735C4.30095 29.4138 4.28445 21.4706 4.31747 13.5109C4.31747 12.6687 4.15233 12.3219 3.21104 12.2559C1.2624 12.1238 0.0238534 10.654 0.00733951 8.72189C0.00733951 7.86317 -0.00917439 7.02096 0.00733951 6.16224C0.0403673 4.14754 1.44405 2.71083 3.42572 2.67781C4.02022 2.66129 4.3505 2.54569 4.58169 1.91817C5.02757 0.696138 6.00189 0.0520964 7.323 0.0190686C9.02394 -0.0139592 10.7414 0.00255471 12.4423 0.0190686C12.9377 0.0190686 13.4331 0.0851241 13.4331 0.729166C13.4331 1.37321 12.9377 1.43926 12.4423 1.43926C10.8405 1.43926 9.25513 1.43926 7.65328 1.43926C7.14135 1.43926 6.66244 1.52183 6.28262 1.88514C5.7872 2.36404 5.83675 2.64478 6.51382 2.80992C7.66979 3.09065 8.66062 3.66864 9.45329 4.54388C10.4937 5.68333 10.9891 7.03747 10.9891 8.60629C10.9726 16.2522 10.9891 23.9147 10.9891 31.5606C10.9891 31.8579 10.9726 32.1716 11.0056 32.4689C11.1212 33.7239 12.1285 34.6817 13.2845 34.6487C14.5065 34.6157 15.3818 33.6909 15.3818 32.3533C15.3983 26.5404 15.3818 20.744 15.3983 14.9311C15.4148 12.5366 15.2332 10.1421 15.5139 7.74757C15.8607 4.74204 18.6515 2.51267 21.8222 2.66129C24.7617 2.84294 27.3213 5.4026 27.3213 8.35859C27.3544 16.0375 27.3378 23.7165 27.3378 31.3955C27.3378 31.9404 27.3378 32.5019 27.4865 33.0303C27.7507 34.0542 28.7085 34.7313 29.7819 34.6652C30.7562 34.5992 31.6315 33.7404 31.7305 32.7331C31.7636 32.4524 31.7471 32.1881 31.7471 31.9074C31.7471 24.3936 31.7471 16.8798 31.7471 9.36593C31.7471 7.31821 32.2425 5.48517 33.8773 4.13103C35.6443 2.66129 37.659 2.24844 39.8224 3.07414C41.9692 3.88332 43.2738 5.48517 43.6536 7.76409C43.7692 8.40813 43.7857 9.0852 43.7857 9.72924C43.8022 17.2431 43.8187 24.7569 43.7692 32.2707C43.7527 34.0377 45.3875 35.045 46.6756 34.5331C47.4848 34.2193 47.9967 33.6579 48.0793 32.7661C48.1123 32.3533 48.1123 31.9404 48.1123 31.5276C48.1123 24.0633 48.1123 16.6155 48.1123 9.15125C48.1123 6.72371 49.0041 4.75856 51.1509 3.47047C54.817 1.29064 59.6886 3.78424 60.0519 8.02831C60.1179 8.78795 60.151 9.5641 60.151 10.3403C60.151 17.6394 60.151 24.922 60.151 32.2212C60.151 32.8982 60.1675 33.5588 60.7289 34.0377C60.8445 34.1533 60.9767 34.3019 61.1583 34.2359C61.3565 34.1698 61.3234 33.9716 61.3234 33.8065C61.34 33.5588 61.34 33.3111 61.34 33.0634C61.34 23.3202 61.34 13.577 61.34 3.83378C61.34 1.8356 60.9271 1.43926 58.9124 1.43926C54.2885 1.43926 49.6646 1.43926 45.0407 1.43926C44.5123 1.43926 43.9673 1.45578 43.9508 0.762194C43.9343 0.00255463 44.5288 0.0190686 45.0738 0.0190686C46.2793 0.0190686 47.5013 0.0190686 48.7068 0.0190686C52.2573 0.0190686 55.8078 0.0190686 59.3583 0.0190686C61.6537 0.0190686 62.8427 1.2411 62.8592 3.55304C62.8592 11.5623 62.8757 19.5715 62.8427 27.5808C62.8427 28.423 62.9913 28.7698 63.9326 28.8523C65.9969 29.034 67.1363 30.4212 67.1694 32.5349C67.1859 33.3276 67.1859 34.1368 67.1694 34.9294C67.1198 36.9937 65.7327 38.3974 63.6849 38.4304C63.1069 38.4304 62.8262 38.5955 62.595 39.157C62.05 40.5442 60.9271 41.0891 59.4574 41.0891C50.8041 41.0891 42.2169 41.0891 33.6296 41.0891ZM33.5636 39.6689C38.7655 39.6689 43.9673 39.6689 49.1692 39.6689C52.5876 39.6689 55.9895 39.6689 59.4078 39.6689C60.0188 39.6689 60.5638 39.5368 60.9601 39.0579C61.2739 38.6946 61.3234 38.4304 60.7289 38.2487C57.806 37.324 56.3197 35.2762 56.3032 32.2377C56.3032 24.6413 56.3032 17.0449 56.3032 9.4485C56.3032 9.11823 56.3197 8.78795 56.2867 8.45767C56.1711 7.31821 55.2463 6.45949 54.1399 6.44297C53.0335 6.42646 52.0922 7.26867 51.9601 8.40813C51.9105 8.75492 51.927 9.11823 51.927 9.48153C51.927 17.0779 51.927 24.6743 51.927 32.2707C51.927 34.4836 51.0353 36.3001 49.1527 37.4891C47.171 38.7442 45.0738 38.8102 43.0426 37.6707C41.0444 36.5478 39.9875 34.7643 39.971 32.4524C39.9545 24.7734 39.971 17.0944 39.971 9.41548C39.971 9.05217 39.9875 8.68886 39.938 8.34207C39.7068 6.87234 38.237 6.03013 36.8994 6.62463C35.9416 7.05399 35.5783 7.86317 35.5783 8.90354C35.5948 16.6651 35.5783 24.4266 35.5948 32.1881C35.5948 34.0542 35.0003 35.6561 33.5966 36.8946C31.6645 38.579 29.4516 38.9423 27.1397 37.8854C24.7947 36.812 23.6387 34.8799 23.6387 32.2872C23.6387 24.6083 23.6387 16.9293 23.6387 9.25034C23.6387 7.49986 22.8296 6.45949 21.4424 6.42646C20.1048 6.39343 19.2626 7.46684 19.2626 9.23382C19.2626 16.8632 19.2626 24.4761 19.2626 32.1056C19.2626 33.5258 18.9488 34.8469 18.0735 35.9863C16.3726 38.1992 13.8295 38.9753 11.2368 38.1001C8.85879 37.3074 7.28997 34.9955 7.28997 32.2872C7.28997 24.5587 7.28997 16.8137 7.28997 9.0852C7.28997 8.44116 7.30649 7.79711 6.8441 7.28518C6.6129 7.03747 6.39823 6.60811 6.00189 6.75674C5.68813 6.87234 5.85326 7.3017 5.85326 7.58243C5.85326 17.5238 5.85326 27.4486 5.85326 37.39C5.85326 39.157 6.34868 39.6524 8.09915 39.6524C16.5543 39.6689 25.0589 39.6689 33.5636 39.6689ZM9.56889 20.3642C9.56889 16.4339 9.5854 12.4871 9.56889 8.55675C9.56889 6.65765 8.41292 5.00627 6.7285 4.41176C6.43125 4.31268 6.06795 4.08149 5.88629 4.52736C5.72115 4.9237 6.0184 5.08883 6.36519 5.23746C7.93401 5.8815 8.69366 7.05399 8.69366 8.77143C8.67714 16.3183 8.69366 23.8486 8.69366 31.3955C8.69366 31.7257 8.69366 32.056 8.69366 32.3863C8.7432 34.9294 10.6258 36.9276 13.0368 37.0267C15.4974 37.1258 17.479 35.3423 17.7268 32.7826C17.7763 32.2047 17.8093 31.6267 17.8093 31.0487C17.8093 23.5844 17.8093 16.1366 17.8258 8.67235C17.8258 6.12921 20.1378 4.44479 22.5323 5.1714C24.0681 5.65031 25.0424 7.02096 25.0424 8.75492C25.0424 16.599 25.0424 24.4431 25.0424 32.2872C25.0424 34.8469 26.9085 36.8781 29.303 37.0102C31.8461 37.1423 33.8608 35.3423 34.1085 32.7001C34.1581 32.1881 34.1581 31.6597 34.1581 31.1312C34.1581 23.7495 34.1581 16.3843 34.1581 9.00263C34.1581 8.42464 34.1581 7.84666 34.3728 7.3017C35.0168 5.71636 36.7508 4.72553 38.3691 5.05581C40.1857 5.41911 41.3581 6.80628 41.3747 8.65584C41.3747 16.2853 41.3747 23.8982 41.3747 31.5276C41.3747 31.8579 41.3747 32.1881 41.3912 32.5184C41.5728 35.557 44.182 37.5552 47.0389 36.8451C49.0536 36.3496 50.3912 34.6652 50.4903 32.4524C50.5068 31.9569 50.5068 31.4615 50.5068 30.9661C50.5068 23.5349 50.5068 16.1036 50.5234 8.67235C50.5234 6.55857 52.1417 4.97324 54.1729 4.98975C56.1711 5.02278 57.7069 6.5916 57.7399 8.65584C57.7399 9.01914 57.7399 9.36593 57.7399 9.72924C57.7399 17.2431 57.7399 24.7569 57.7399 32.2707C57.7399 34.3019 58.6317 35.8047 60.5308 36.6469C60.762 36.746 61.0592 36.9937 61.2409 36.6139C61.3895 36.3001 61.2739 36.0028 60.9436 35.8707C59.0941 35.0781 58.6317 33.5753 58.6317 31.7092C58.6647 24.0633 58.6317 16.4009 58.6482 8.75492C58.6482 7.25215 58.1032 6.01361 56.9142 5.08883C55.461 3.96589 53.8592 3.75121 52.1913 4.56039C50.4903 5.36957 49.6316 6.77325 49.6151 8.63932C49.5986 12.8834 49.6151 17.111 49.6151 21.355C49.6151 24.9881 49.6316 28.6211 49.6151 32.2542C49.6151 33.856 48.905 35.0781 47.4353 35.7551C46.0481 36.3992 44.7435 36.1515 43.5875 35.1937C42.6132 34.368 42.2994 33.2615 42.2994 32.023C42.3159 24.2945 42.2994 16.5495 42.3159 8.82098C42.3159 7.08702 41.6554 5.69985 40.1691 4.79158C37.081 2.92551 33.2994 5.05581 33.2828 8.67235C33.2663 16.3018 33.2828 23.9147 33.2828 31.5441C33.2828 31.8744 33.2994 32.2047 33.2663 32.5349C33.1507 34.0377 32.4406 35.1441 31.07 35.7717C29.6993 36.3992 28.4112 36.135 27.2883 35.2267C26.2644 34.401 25.9507 33.2615 25.9507 31.99C25.9672 24.1954 25.9672 16.4174 25.9507 8.62281C25.9507 6.49252 24.5305 4.6925 22.5158 4.23011C19.5928 3.55304 16.9341 5.65031 16.9341 8.67235C16.9176 16.3513 16.9341 24.0303 16.9341 31.7092C16.9341 31.99 16.9506 32.2542 16.9341 32.5349C16.7524 35.4414 13.6478 37.0597 11.2698 35.4744C10.0808 34.6817 9.61843 33.5423 9.61843 32.1551C9.56889 28.2413 9.56889 24.311 9.56889 20.3642ZM62.7932 35.6065C62.7932 35.8542 62.8097 36.1019 62.7932 36.3496C62.7767 36.8285 62.9748 37.0432 63.4703 37.0267C64.1969 37.0102 64.8244 36.812 65.2538 36.201C65.6005 35.7221 65.8152 35.1111 65.5675 34.5827C65.3528 34.1037 64.7748 34.401 64.362 34.3349C64.2629 34.3184 64.1473 34.3349 64.0317 34.3349C62.8097 34.3349 62.8097 34.3349 62.7932 35.6065ZM2.83122 6.80628C4.30096 6.80628 4.30095 6.80628 4.30095 5.36957C4.30095 5.33654 4.30095 5.32003 4.30095 5.287C4.30095 4.098 3.95416 3.86681 2.8147 4.24663C2.38534 4.39525 2.03856 4.65947 1.79085 5.03929C1.4936 5.48517 1.29543 6.01361 1.47708 6.50903C1.67525 7.03747 2.23672 6.74022 2.64956 6.82279C2.71562 6.80628 2.76517 6.80628 2.83122 6.80628ZM2.78168 8.22647C2.43489 8.39161 1.70827 7.8962 1.49359 8.52373C1.2624 9.2008 1.60919 9.86135 2.15415 10.3568C2.25323 10.4559 2.36883 10.5384 2.48442 10.6045C3.59086 11.232 4.31747 10.8357 4.31747 9.59713C4.31747 9.43199 4.30096 9.26685 4.31747 9.10171C4.38353 8.47418 4.15233 8.16042 3.47526 8.22647C3.27709 8.24299 3.07893 8.22647 2.78168 8.22647ZM64.1308 32.9147C64.5271 32.9147 64.8244 32.9147 65.1216 32.9147C65.5015 32.9147 65.6501 32.7331 65.6666 32.3533C65.6831 31.1147 64.5437 30.1239 63.3051 30.3221C63.1069 30.3551 62.8923 30.3881 62.8592 30.6028C62.7436 31.2799 62.6446 32.0065 62.8923 32.634C63.1069 33.1955 63.784 32.7992 64.1308 32.9147Z" fill="#627084"/>
<path d="M34.4555 0.0520897C34.9179 0.0520897 35.3968 0.0355758 35.8592 0.0520897C36.2555 0.0686036 36.5528 0.283284 36.5528 0.712646C36.5693 1.19155 36.2721 1.42274 35.8262 1.43926C34.8849 1.45577 33.9601 1.45577 33.0188 1.43926C32.6225 1.42274 32.3418 1.19155 32.3087 0.778701C32.2922 0.299798 32.606 0.0851175 33.0353 0.0520897C33.5142 0.0355758 33.9931 0.0520897 34.4555 0.0520897Z" fill="#E58707"/>
<path d="M17.0827 1.45578C16.6203 1.45578 16.1579 1.47229 15.679 1.45578C15.2827 1.43927 15.0185 1.20807 15.002 0.778711C15.002 0.349349 15.2497 0.101641 15.6625 0.085127C16.6203 0.0520992 17.5781 0.0520992 18.5359 0.085127C18.9488 0.101641 19.1965 0.332835 19.1965 0.762197C19.1965 1.19156 18.9488 1.43927 18.5359 1.45578C18.0735 1.47229 17.5781 1.43927 17.0827 1.45578C17.0827 1.43927 17.0827 1.45578 17.0827 1.45578Z" fill="#E58707"/>
<path d="M22.912 1.45577C22.5487 1.45577 22.2019 1.45577 21.8386 1.45577C21.3267 1.45577 20.7817 1.43926 20.7982 0.729163C20.8147 0.101635 21.3101 0.0355797 21.8056 0.0355797C22.5487 0.0355797 23.2918 0.0355797 24.0184 0.0355797C24.5138 0.0355797 25.0093 0.118149 24.9928 0.762191C24.9762 1.38972 24.4808 1.45577 23.9854 1.45577C23.6221 1.45577 23.2588 1.45577 22.912 1.45577Z" fill="#E58707"/>
<path d="M40.2024 1.45578C39.74 1.45578 39.2776 1.47229 38.8152 1.45578C38.4189 1.43927 38.1382 1.20807 38.1382 0.778711C38.1382 0.349349 38.3694 0.085127 38.7822 0.085127C39.74 0.0520992 40.6978 0.0520992 41.6556 0.085127C42.052 0.101641 42.3327 0.332835 42.3327 0.762197C42.3327 1.2411 42.0355 1.45578 41.6061 1.47229C41.1437 1.47229 40.6648 1.45578 40.2024 1.45578Z" fill="#E58707"/>
<path d="M28.6261 1.43926C28.1637 1.43926 27.6848 1.47229 27.2224 1.43926C26.8591 1.40623 26.5949 1.19155 26.5784 0.811735C26.5619 0.365859 26.8261 0.118151 27.2224 0.101637C28.2132 0.0686092 29.2041 0.0686092 30.1949 0.101637C30.5582 0.118151 30.7894 0.382373 30.7894 0.778707C30.7894 1.17504 30.5747 1.42275 30.1949 1.45578C29.6665 1.47229 29.138 1.43926 28.6261 1.43926Z" fill="#E58707"/>
</svg>
