<svg width="151" height="120" viewBox="0 0 151 120" fill="none" xmlns="http://www.w3.org/2000/svg">
<path d="M141.33 103.6H28.0301C28.0301 103.6 22.8301 102.5 19.6301 98.8C19.4301 98.4 19.0301 97.9 18.6301 97.3C18.1301 96.5 17.7301 95.5 17.5301 94.5C17.2301 92 18.2301 88.9 19.6301 85.6C29.6301 72.4 56.1301 20.6 56.1301 20.6C56.1301 20.6 65.2301 13 74.1301 20.6L113.93 88.2H133.43L88.0301 13.2C88.0301 13.2 66.6301 -14.3 42.3301 13.2L2.93006 80.5C2.93006 80.5 -12.5699 113.4 27.7301 119.9H150.93L141.33 103.6Z" fill="#303948"/>
<path d="M55.4299 50.3L42.6299 75.3C39.7299 81.1 43.8299 87.9 50.3299 87.9H95.0299L74.1299 50C70.0299 42.6 59.2299 42.8 55.4299 50.3Z" fill="#303948"/>
</svg>
